<?xml version="1.0"?>
<svg width="322" height="322" xmlns="http://www.w3.org/2000/svg" xmlns:svg="http://www.w3.org/2000/svg">

 <g class="layer">
  <title>Layer 1</title>
  <rect fill="#f8f8f8" height="213" id="svg_9" stroke="#000000" stroke-width="5" width="283" x="23" y="49.72"/>
  <g id="svg_1" transform="translate(-95, -95.03)">
   <path d="m371.4,415.02c-7.46,1.91 -11.33,1.98 -116.31,1.91c-91.07,-0.05 -109.48,-0.29 -114.09,-1.5c-21.79,-5.7 -41.14,-25.46 -44.91,-45.86c-0.75,-4.07 -1.09,-40.25 -1.09,-114.86c0,-96.17 0.19,-109.64 1.59,-115.07c4.14,-16.05 15.64,-30.2 30.5,-37.53c2.34,-1.16 4.2,-2.12 6.12,-2.93c9.83,-4.15 21.42,-4.15 110.26,-4.15c4.02,0 8.19,0 12.53,0c4.14,0 8.13,0 11.98,0c89.49,0 101,0 110.77,4.12c1.86,0.79 3.66,1.73 5.92,2.84c17.86,8.81 28.95,25.22 31.41,46.5c0.68,5.88 0.93,45.48 0.71,114.01c-0.31,98.44 -0.45,105.34 -2.16,110.5c-3.44,10.37 -8.82,19.22 -16.11,26.51c-8.15,8.13 -16.16,12.71 -27.12,15.51zm-202.09,-98.97c3.87,2.35 5.86,2.43 9.82,0.38c5.78,-2.98 5.87,-3.86 5.87,-54.34c0,-25.28 0.34,-46.11 0.75,-46.28c0.41,-0.17 6.26,-0.17 13,0l12.25,0.31l0,46.53l0,2.65c0,39.55 0,46.18 3.3,49.23c0.74,0.68 1.64,1.18 2.74,1.83c3.43,2.03 5.25,2.06 8.99,0.12c5.79,-2.99 6.01,-4.4 5.94,-38.08c-0.03,-16.85 0.12,-30.82 0.34,-31.04c0.22,-0.22 2.33,5.12 4.69,11.87c5.92,16.91 7.4,19.62 11.72,21.43c3.26,1.36 3.96,1.34 7.35,-0.19c4.06,-1.83 5.03,-3.65 13.77,-25.93c2.15,-5.48 4.42,-10.13 5.04,-10.33c0.82,-0.28 0.86,0.35 0.13,2.27c-1.41,3.7 -1.34,60.28 0.08,64.34c1.26,3.61 6.42,7.18 10.38,7.18c1.77,0 3.92,-1.19 6.13,-3.4l3.4,-3.4l0,-25.1l7.14,-8.05c3.93,-4.43 7.43,-8.05 7.78,-8.05c0.36,0 1.4,1.24 2.31,2.75c4.42,7.31 29.72,36.02 34.8,39.48c5.9,4.03 12,6.21 14.84,5.31c3.22,-1.02 6.13,-4.55 6.13,-7.43c0,-3.27 -1.62,-5.63 -12.5,-18.23c-4.4,-5.1 -13.48,-15.68 -20.17,-23.51l-12.18,-14.24l9.95,-11.54c9.11,-10.59 18.42,-20.8 29.59,-32.45c5.48,-5.72 5.79,-9.27 1.06,-12.15c-2.2,-1.34 -5.03,-1.98 -8.77,-1.99c-8.06,0 -10.8,2.13 -30.13,23.5c-6.02,6.65 -25.73,30.34 -27.18,32.66c-0.63,1.01 -1.49,1.84 -1.91,1.84c-0.42,0 -0.76,-11.04 -0.76,-24.53c0,-26.67 -0.51,-29.79 -5.44,-33.02c-3.12,-2.05 -8.79,-1.44 -11.83,1.26c-1.11,0.98 -7.12,12.25 -13.36,25.04c-6.24,12.79 -11.7,23.25 -12.13,23.25c-0.43,0 -5.27,-9.06 -10.76,-20.14c-5.49,-11.07 -11.21,-21.86 -12.71,-23.96c-1.06,-1.48 -1.84,-2.65 -2.85,-3.56c-3.7,-3.34 -10.42,-3.34 -44.6,-3.34c-0.99,0 -1.99,0 -3.02,0c-39.67,0.01 -41.96,0.11 -45,1.96c-5.86,3.57 -5.35,11.74 1.03,16.45c2.57,1.9 4.07,2.08 16.25,1.93l13.42,-0.15l0,47.47c0,31.63 0.35,48.13 1.06,49.46c0.59,1.09 2.5,2.86 4.25,3.93zm184.84,-41.58c9.81,8.26 22.52,-5.09 13.96,-14.67c-2.47,-2.76 -3.5,-3.21 -7.12,-3.07c-4.58,0.19 -7.31,2.05 -9.66,6.59c-1.96,3.81 -0.9,8.02 2.82,11.15z" fill="rgb(248,248,248)" id="svg_2"/>
   <path d="m371.4,415.02c-7.46,1.91 -11.33,1.98 -116.31,1.91c-91.07,-0.05 -109.48,-0.29 -114.09,-1.5c-21.79,-5.7 -41.14,-25.46 -44.91,-45.86c-0.75,-4.07 -1.09,-40.25 -1.09,-114.86c0,-96.17 0.19,-109.64 1.59,-115.07c4.14,-16.05 15.64,-30.2 30.5,-37.53c2.34,-1.16 4.2,-2.12 6.12,-2.93c9.83,-4.15 21.42,-4.15 110.26,-4.15c4.02,0 8.19,0 12.53,0c4.14,0 8.13,0 11.98,0c89.49,0 101,0 110.77,4.12c1.86,0.79 3.66,1.73 5.92,2.84c17.86,8.81 28.95,25.22 31.41,46.5c0.68,5.88 0.93,45.48 0.71,114.01c-0.31,98.44 -0.45,105.34 -2.16,110.5c-3.44,10.37 -8.82,19.22 -16.11,26.51c-8.15,8.13 -16.16,12.71 -27.12,15.51zm-202.09,-98.97c3.87,2.35 5.86,2.43 9.82,0.38c5.78,-2.98 5.87,-3.86 5.87,-54.34c0,-25.28 0.34,-46.11 0.75,-46.28c0.41,-0.17 6.26,-0.17 13,0l12.25,0.31l0,46.53l0,2.65c0,39.55 0,46.18 3.3,49.23c0.74,0.68 1.64,1.18 2.74,1.83c3.43,2.03 5.25,2.06 8.99,0.12c5.79,-2.99 6.01,-4.4 5.94,-38.08c-0.03,-16.85 0.12,-30.82 0.34,-31.04c0.22,-0.22 2.33,5.12 4.69,11.87c5.92,16.91 7.4,19.62 11.72,21.43c3.26,1.36 3.96,1.34 7.35,-0.19c4.06,-1.83 5.03,-3.65 13.77,-25.93c2.15,-5.48 4.42,-10.13 5.04,-10.33c0.82,-0.28 0.86,0.35 0.13,2.27c-1.41,3.7 -1.34,60.28 0.08,64.34c1.26,3.61 6.42,7.18 10.38,7.18c1.77,0 3.92,-1.19 6.13,-3.4l3.4,-3.4l0,-25.1l7.14,-8.05c3.93,-4.43 7.43,-8.05 7.78,-8.05c0.36,0 1.4,1.24 2.31,2.75c4.42,7.31 29.72,36.02 34.8,39.48c5.9,4.03 12,6.21 14.84,5.31c3.22,-1.02 6.13,-4.55 6.13,-7.43c0,-3.27 -1.62,-5.63 -12.5,-18.23c-4.4,-5.1 -13.48,-15.68 -20.17,-23.51l-12.18,-14.24l9.95,-11.54c9.11,-10.59 18.42,-20.8 29.59,-32.45c5.48,-5.72 5.79,-9.27 1.06,-12.15c-2.2,-1.34 -5.03,-1.98 -8.77,-1.99c-8.06,0 -10.8,2.13 -30.13,23.5c-6.02,6.65 -25.73,30.34 -27.18,32.66c-0.63,1.01 -1.49,1.84 -1.91,1.84c-0.42,0 -0.76,-11.04 -0.76,-24.53c0,-26.67 -0.51,-29.79 -5.44,-33.02c-3.12,-2.05 -8.79,-1.44 -11.83,1.26c-1.11,0.98 -7.12,12.25 -13.36,25.04c-6.24,12.79 -11.7,23.25 -12.13,23.25c-0.43,0 -5.27,-9.06 -10.76,-20.14c-5.49,-11.07 -11.21,-21.86 -12.71,-23.96c-1.06,-1.48 -1.84,-2.65 -2.85,-3.56c-3.7,-3.34 -10.42,-3.34 -44.6,-3.34c-0.99,0 -1.99,0 -3.02,0c-39.67,0.01 -41.96,0.11 -45,1.96c-5.86,3.57 -5.35,11.74 1.03,16.45c2.57,1.9 4.07,2.08 16.25,1.93l13.42,-0.15l0,47.47c0,31.63 0.35,48.13 1.06,49.46c0.59,1.09 2.5,2.86 4.25,3.93zm184.84,-41.58c9.81,8.26 22.52,-5.09 13.96,-14.67c-2.47,-2.76 -3.5,-3.21 -7.12,-3.07c-4.58,0.19 -7.31,2.05 -9.66,6.59c-1.96,3.81 -0.9,8.02 2.82,11.15z" fill="rgb(17,17,26)" id="svg_3"/>
   <path d="m211,195.22c9.46,0.33 12.72,1.13 14.92,3.12c1.01,0.91 1.79,2.08 2.85,3.56c1.5,2.1 7.22,12.89 12.71,23.96c5.49,11.08 10.33,20.14 10.76,20.14c0.43,0 5.89,-10.46 12.13,-23.25c6.24,-12.79 12.25,-24.06 13.36,-25.04c3.04,-2.7 8.71,-3.31 11.83,-1.26c4.93,3.23 5.44,6.35 5.44,33.02c0,12.09 0.27,22.22 0.63,24.18c-0.44,-0.59 -0.63,-2.39 -0.63,-5.51l0,-5.87l-4.64,-0.63c-6.14,-0.85 -12.6,-0.79 -13.96,0.13c-0.58,0.39 -0.95,0.63 -1.21,2.37c-0.09,0.01 -0.19,0.03 -0.31,0.07c-0.62,0.2 -2.89,4.85 -5.04,10.33c-8.74,22.28 -9.71,24.1 -13.77,25.93c-3.39,1.53 -4.09,1.55 -7.35,0.19c-4.32,-1.81 -5.8,-4.52 -11.72,-21.43c-2.36,-6.75 -4.47,-12.09 -4.69,-11.87c-0.22,0.22 -0.37,14.19 -0.34,31.04c0.03,12.76 0.01,20.89 -0.33,26.23c-0.29,5.08 -0.91,7.64 -2.16,9.28c-0.84,1.14 -1.96,1.8 -3.45,2.57c-2.31,1.2 -3.88,1.64 -5.56,1.34c1.68,0.26 3.34,-0.19 5.56,-1.34c1.49,-0.77 2.61,-1.46 3.45,-2.57c1.19,-1.61 1.83,-4.16 2.16,-9.28c0.26,-4.69 0.23,-11.53 0.13,-21.79l-0.27,-26.2l-2.62,-0.7c-1.44,-0.38 -5.79,-2.55 -9.67,-4.82c-3.88,-2.26 -7.32,-4.12 -7.63,-4.12c-0.3,0 -0.55,12.56 -0.58,28.42c0,-3.09 0,-6.44 0,-10.07l0,-0.05l0,-2.65l0,-67.43zm63.95,51.46c-0.27,4.23 -0.39,12.52 -0.63,29.32c-0.12,7.68 -0.18,13.75 -0.17,18.6c-0.37,-17.88 -0.12,-44.4 0.8,-47.92zm-93.19,68.01c2.76,-2.99 2.81,-10.97 3.24,-51.61c0,40.4 -0.09,48.42 -3.24,51.61zm92.83,-8.14c0.29,2.86 0.75,4.72 1.43,6.06c-0.4,-0.58 -0.72,-1.18 -0.93,-1.79c-0.19,-0.55 -0.36,-2.06 -0.5,-4.27zm-87.09,-90.85c-1,0.02 -1.62,0.06 -1.75,0.11c-0.1,0.04 -0.2,1.37 -0.29,3.74l0.04,-3.89l2,0.04zm96.69,102.19c2.57,0.3 4.9,-0.78 7.41,-3.29c-2.21,2.21 -4.36,3.4 -6.13,3.4c-0.42,0 -0.84,-0.04 -1.28,-0.11zm-68.51,-2.34c-0.51,-0.32 -0.97,-0.64 -1.38,-1.02c-0.48,-0.44 -0.88,-0.96 -1.23,-1.63c0.64,1.15 1.49,1.9 2.61,2.65zm80.47,-61.7c0.44,-0.28 1.04,-0.93 1.52,-1.69c-0.63,1.01 -1.14,1.59 -1.52,1.69z" fill="rgb(59,214,178)" id="svg_4"/>
   <path d="m275.34,245.51c0.29,-0.95 0.24,-1.37 -0.15,-1.37c0.26,-1.74 0.63,-1.98 1.21,-2.37c1.36,-0.92 7.82,-0.98 13.96,-0.13l4.64,0.63l0,5.87c0,3.12 0.19,4.92 0.63,5.51c0.01,0.06 0.02,0.11 0.03,0.15c-0.44,-0.34 -0.66,-1.57 -0.66,-3.68c0,-2.13 -0.56,-4.32 -1.25,-4.85c-2.07,-1.63 -10.01,-3.08 -13.94,-2.56c-2.69,0.36 -3.67,0.91 -4.47,2.8zm-90.38,21.19l0.04,-3.62c0,1.23 0,2.43 -0.04,3.62zm91.01,45.81c0.17,0.25 0.35,0.5 0.54,0.75c-0.17,-0.21 -0.34,-0.43 -0.49,-0.65c-0.02,-0.03 -0.03,-0.06 -0.05,-0.1zm-1.02,-65.83c0,-0.03 0.01,-0.06 0.02,-0.09c-0.01,0.04 -0.02,0.09 -0.03,0.14l0.01,-0.05zm21.2,7.17c0.01,0 0.03,-0.01 0.04,-0.01c-0.02,0.01 -0.04,0.02 -0.06,0.02c0.01,0 0.01,0 0.02,-0.01z" fill="rgb(153,154,157)" id="svg_5"/>
   <path d="m354.15,274.47c-3.72,-3.13 -4.78,-7.34 -2.82,-11.15c2.35,-4.54 5.08,-6.4 9.66,-6.59c3.62,-0.14 4.65,0.31 7.12,3.07c8.56,9.58 -4.15,22.93 -13.96,14.67z" fill="rgb(208,83,80)" id="svg_6"/>
   <path d="m211,275.42l0,0c0.03,-15.86 0.28,-28.42 0.58,-28.42c0.31,0 3.75,1.86 7.63,4.12c3.88,2.27 8.23,4.44 9.67,4.82l2.62,0.7l0.27,26.2c0.1,10.26 0.13,17.1 -0.13,21.79c-0.33,5.12 -0.97,7.67 -2.16,9.28c-0.84,1.11 -1.96,1.8 -3.45,2.57c-2.31,1.2 -3.88,1.64 -5.56,1.34c-1.04,-0.2 -2.11,-0.68 -3.43,-1.46c-0.49,-0.29 -0.94,-0.55 -1.36,-0.81c-1.12,-0.75 -1.97,-1.5 -2.61,-2.65c-1.85,-3.59 -2.05,-11.72 -2.07,-37.48z" fill="rgb(245,193,75)" id="svg_7"/>
   <path d="m279.33,315.94c-1.74,-1.12 -3.65,-3.43 -4.25,-5.14c-1.45,-4.16 -1.47,-60.39 -0.02,-64.55c0.87,-2.49 1.74,-3.14 4.75,-3.54c3.93,-0.52 11.87,0.93 13.94,2.56c0.69,0.53 1.25,2.72 1.25,4.85c0,4.23 0.88,4.9 2.67,2.04c1.45,-2.32 21.16,-26.01 27.18,-32.66c19.33,-21.37 22.07,-23.5 30.13,-23.5c7.17,0.01 12.02,2.74 12.02,6.77c0,2.13 -1.92,4.81 -8.07,11.26c-9.06,9.5 -29.37,32.48 -39.05,44.18c-3.51,4.24 -10.54,12.22 -15.63,17.73l-9.25,10.02l0,12.62l0,12.62l-3.4,3.4c-3.98,3.98 -7.53,4.37 -12.27,1.34z" fill="rgb(245,149,69)" id="svg_8"/>
  </g>
 </g>
</svg>